<mxfile host="app.diagrams.net" modified="2024-11-06T02:55:59.986Z" agent="Mozilla/5.0 (Windows NT 10.0; Win64; x64) AppleWebKit/537.36 (KHTML, like Gecko) Chrome/130.0.0.0 Safari/537.36" etag="5ZhwWLxGsF5WzJlLdXOj" version="24.3.1" type="google">
  <diagram name="Página-1" id="tQUB_WV7INsrA2Eu-pG5">
    <mxGraphModel grid="1" page="1" gridSize="10" guides="1" tooltips="1" connect="1" arrows="1" fold="1" pageScale="1" pageWidth="827" pageHeight="1169" math="0" shadow="0">
      <root>
        <mxCell id="0" />
        <mxCell id="1" parent="0" />
        <mxCell id="uKUoslAz756woLKzZDvL-1" value="&lt;font style=&quot;font-size: 18px;&quot;&gt;Empresa Contratante&lt;/font&gt;" style="swimlane;fontStyle=0;childLayout=stackLayout;horizontal=1;startSize=30;horizontalStack=0;resizeParent=1;resizeParentMax=0;resizeLast=0;collapsible=1;marginBottom=0;whiteSpace=wrap;html=1;" vertex="1" parent="1">
          <mxGeometry x="440" y="650" width="200" height="350" as="geometry" />
        </mxCell>
        <mxCell id="uKUoslAz756woLKzZDvL-2" value="&lt;div&gt;&lt;font style=&quot;font-size: 12px;&quot;&gt;&lt;br&gt;&lt;/font&gt;&lt;/div&gt;&lt;font style=&quot;&quot;&gt;&lt;div style=&quot;font-size: 12px;&quot;&gt;&lt;span style=&quot;background-color: initial; font-size: medium;&quot;&gt;nome : String&lt;/span&gt;&lt;/div&gt;&lt;/font&gt;&lt;div&gt;&lt;font style=&quot;font-size: 12px;&quot;&gt;&lt;br&gt;&lt;/font&gt;&lt;div&gt;&lt;font size=&quot;3&quot;&gt;cnpj : int&lt;/font&gt;&lt;/div&gt;&lt;div&gt;&lt;font size=&quot;3&quot;&gt;&lt;br&gt;&lt;/font&gt;&lt;/div&gt;&lt;div&gt;&lt;font size=&quot;3&quot;&gt;endereço : String&lt;/font&gt;&lt;/div&gt;&lt;div&gt;&lt;font size=&quot;3&quot;&gt;&lt;br&gt;&lt;/font&gt;&lt;/div&gt;&lt;div&gt;&lt;font size=&quot;3&quot;&gt;email : String&lt;/font&gt;&lt;/div&gt;&lt;div&gt;&lt;font size=&quot;3&quot;&gt;&lt;br&gt;&lt;/font&gt;&lt;/div&gt;&lt;div&gt;&lt;font size=&quot;3&quot;&gt;cidade: String&lt;/font&gt;&lt;/div&gt;&lt;div&gt;&lt;font size=&quot;3&quot;&gt;&lt;br&gt;&lt;/font&gt;&lt;/div&gt;&lt;div&gt;&lt;font size=&quot;3&quot;&gt;estado: String&lt;/font&gt;&lt;/div&gt;&lt;div&gt;&lt;font size=&quot;3&quot;&gt;&lt;br&gt;&lt;/font&gt;&lt;/div&gt;&lt;div&gt;&lt;font size=&quot;3&quot;&gt;site : String&lt;/font&gt;&lt;/div&gt;&lt;div&gt;&lt;font size=&quot;3&quot;&gt;&lt;br&gt;&lt;/font&gt;&lt;/div&gt;&lt;div&gt;&lt;font size=&quot;3&quot;&gt;IE : int&lt;/font&gt;&lt;/div&gt;&lt;div&gt;&lt;font size=&quot;3&quot;&gt;&lt;br&gt;&lt;/font&gt;&lt;/div&gt;&lt;div&gt;&lt;font size=&quot;3&quot;&gt;&lt;br&gt;&lt;/font&gt;&lt;/div&gt;&lt;div&gt;&lt;font size=&quot;3&quot;&gt;&lt;br&gt;&lt;/font&gt;&lt;/div&gt;&lt;div&gt;&lt;br&gt;&lt;/div&gt;&lt;/div&gt;" style="text;strokeColor=none;fillColor=none;align=left;verticalAlign=middle;spacingLeft=4;spacingRight=4;overflow=hidden;points=[[0,0.5],[1,0.5]];portConstraint=eastwest;rotatable=0;whiteSpace=wrap;html=1;" vertex="1" parent="uKUoslAz756woLKzZDvL-1">
          <mxGeometry y="30" width="200" height="320" as="geometry" />
        </mxCell>
        <mxCell id="uKUoslAz756woLKzZDvL-6" value="&lt;font style=&quot;font-size: 18px;&quot;&gt;Boleto&lt;/font&gt;" style="swimlane;fontStyle=0;childLayout=stackLayout;horizontal=1;startSize=30;horizontalStack=0;resizeParent=1;resizeParentMax=0;resizeLast=0;collapsible=1;marginBottom=0;whiteSpace=wrap;html=1;" vertex="1" parent="1">
          <mxGeometry x="440" y="400" width="160" height="170" as="geometry" />
        </mxCell>
        <mxCell id="uKUoslAz756woLKzZDvL-7" value="&lt;div&gt;&lt;span style=&quot;font-size: medium; background-color: initial;&quot;&gt;vencimento: Date&lt;/span&gt;&lt;/div&gt;&lt;div&gt;&lt;font size=&quot;3&quot;&gt;&lt;br&gt;&lt;/font&gt;&lt;/div&gt;&lt;div&gt;&lt;font size=&quot;3&quot;&gt;numero : int&lt;/font&gt;&lt;/div&gt;&lt;div&gt;&lt;font size=&quot;3&quot;&gt;&lt;br&gt;&lt;/font&gt;&lt;/div&gt;&lt;div&gt;&lt;font size=&quot;3&quot;&gt;valor : int&lt;/font&gt;&lt;/div&gt;" style="text;strokeColor=none;fillColor=none;align=left;verticalAlign=middle;spacingLeft=4;spacingRight=4;overflow=hidden;points=[[0,0.5],[1,0.5]];portConstraint=eastwest;rotatable=0;whiteSpace=wrap;html=1;" vertex="1" parent="uKUoslAz756woLKzZDvL-6">
          <mxGeometry y="30" width="160" height="140" as="geometry" />
        </mxCell>
        <mxCell id="uKUoslAz756woLKzZDvL-12" value="&lt;font style=&quot;font-size: 18px;&quot;&gt;Agencia de viagem&lt;/font&gt;" style="swimlane;fontStyle=0;childLayout=stackLayout;horizontal=1;startSize=30;horizontalStack=0;resizeParent=1;resizeParentMax=0;resizeLast=0;collapsible=1;marginBottom=0;whiteSpace=wrap;html=1;" vertex="1" parent="1">
          <mxGeometry x="800" y="400" width="160" height="170" as="geometry">
            <mxRectangle x="800" y="400" width="190" height="40" as="alternateBounds" />
          </mxGeometry>
        </mxCell>
        <mxCell id="uKUoslAz756woLKzZDvL-13" value="&lt;div&gt;&lt;div&gt;&lt;font size=&quot;3&quot;&gt;cnpj : int&lt;/font&gt;&lt;/div&gt;&lt;div&gt;&lt;font size=&quot;3&quot;&gt;&lt;br&gt;&lt;/font&gt;&lt;/div&gt;&lt;div&gt;&lt;font size=&quot;3&quot;&gt;endereço : String&lt;/font&gt;&lt;/div&gt;&lt;div&gt;&lt;font size=&quot;3&quot;&gt;&lt;br&gt;&lt;/font&gt;&lt;/div&gt;&lt;div&gt;&lt;font size=&quot;3&quot;&gt;nome : String&lt;/font&gt;&lt;/div&gt;&lt;div&gt;&lt;br&gt;&lt;/div&gt;&lt;/div&gt;" style="text;strokeColor=none;fillColor=none;align=left;verticalAlign=middle;spacingLeft=4;spacingRight=4;overflow=hidden;points=[[0,0.5],[1,0.5]];portConstraint=eastwest;rotatable=0;whiteSpace=wrap;html=1;" vertex="1" parent="uKUoslAz756woLKzZDvL-12">
          <mxGeometry y="30" width="160" height="140" as="geometry" />
        </mxCell>
        <mxCell id="uKUoslAz756woLKzZDvL-22" style="edgeStyle=orthogonalEdgeStyle;rounded=0;orthogonalLoop=1;jettySize=auto;html=1;entryX=0.5;entryY=0;entryDx=0;entryDy=0;" edge="1" parent="1" source="uKUoslAz756woLKzZDvL-16" target="uKUoslAz756woLKzZDvL-6">
          <mxGeometry relative="1" as="geometry" />
        </mxCell>
        <mxCell id="uKUoslAz756woLKzZDvL-23" value="Gera" style="edgeLabel;html=1;align=center;verticalAlign=middle;resizable=0;points=[];fontSize=14;" connectable="0" vertex="1" parent="uKUoslAz756woLKzZDvL-22">
          <mxGeometry x="-0.1469" relative="1" as="geometry">
            <mxPoint as="offset" />
          </mxGeometry>
        </mxCell>
        <mxCell id="uKUoslAz756woLKzZDvL-26" value="1..1" style="edgeLabel;html=1;align=center;verticalAlign=middle;resizable=0;points=[];fontSize=14;" connectable="0" vertex="1" parent="uKUoslAz756woLKzZDvL-22">
          <mxGeometry x="-0.8159" y="-1" relative="1" as="geometry">
            <mxPoint as="offset" />
          </mxGeometry>
        </mxCell>
        <mxCell id="uKUoslAz756woLKzZDvL-27" value="1..*" style="edgeLabel;html=1;align=center;verticalAlign=middle;resizable=0;points=[];fontSize=14;" connectable="0" vertex="1" parent="uKUoslAz756woLKzZDvL-22">
          <mxGeometry x="0.7432" y="-2" relative="1" as="geometry">
            <mxPoint as="offset" />
          </mxGeometry>
        </mxCell>
        <mxCell id="uKUoslAz756woLKzZDvL-16" value="&lt;font face=&quot;Helvetica&quot; style=&quot;font-size: 18px;&quot;&gt;Banco&lt;/font&gt;" style="swimlane;fontStyle=0;childLayout=stackLayout;horizontal=1;startSize=30;horizontalStack=0;resizeParent=1;resizeParentMax=0;resizeLast=0;collapsible=1;marginBottom=0;whiteSpace=wrap;html=1;" vertex="1" parent="1">
          <mxGeometry x="440" y="100" width="160" height="170" as="geometry" />
        </mxCell>
        <mxCell id="uKUoslAz756woLKzZDvL-17" value="&lt;div&gt;&lt;span style=&quot;font-size: medium; background-color: initial;&quot;&gt;nome : String&lt;/span&gt;&lt;/div&gt;&lt;div&gt;&lt;span style=&quot;font-size: medium;&quot;&gt;&lt;br&gt;&lt;/span&gt;&lt;/div&gt;&lt;div&gt;&lt;font size=&quot;3&quot;&gt;agência : String&lt;/font&gt;&lt;/div&gt;&lt;div&gt;&lt;font size=&quot;3&quot;&gt;&lt;br&gt;&lt;/font&gt;&lt;/div&gt;&lt;div&gt;&lt;font size=&quot;3&quot;&gt;endereço : String&lt;/font&gt;&lt;/div&gt;" style="text;strokeColor=none;fillColor=none;align=left;verticalAlign=middle;spacingLeft=4;spacingRight=4;overflow=hidden;points=[[0,0.5],[1,0.5]];portConstraint=eastwest;rotatable=0;whiteSpace=wrap;html=1;" vertex="1" parent="uKUoslAz756woLKzZDvL-16">
          <mxGeometry y="30" width="160" height="140" as="geometry" />
        </mxCell>
        <mxCell id="uKUoslAz756woLKzZDvL-28" value="&lt;font style=&quot;font-size: 18px;&quot;&gt;Trivago&lt;/font&gt;" style="swimlane;fontStyle=0;childLayout=stackLayout;horizontal=1;startSize=30;horizontalStack=0;resizeParent=1;resizeParentMax=0;resizeLast=0;collapsible=1;marginBottom=0;whiteSpace=wrap;html=1;" vertex="1" parent="1">
          <mxGeometry x="160" y="510" width="170" height="170" as="geometry" />
        </mxCell>
        <mxCell id="uKUoslAz756woLKzZDvL-29" value="&lt;div&gt;&lt;br&gt;&lt;/div&gt;&lt;span style=&quot;font-size: medium;&quot;&gt;nome : String&lt;/span&gt;&lt;br&gt;&lt;div&gt;&lt;font size=&quot;3&quot;&gt;&lt;br&gt;&lt;/font&gt;&lt;div&gt;&lt;font size=&quot;3&quot;&gt;cnpj : int&lt;/font&gt;&lt;/div&gt;&lt;div&gt;&lt;font size=&quot;3&quot;&gt;&lt;br&gt;&lt;/font&gt;&lt;/div&gt;&lt;div&gt;&lt;font size=&quot;3&quot;&gt;endereço : String&lt;/font&gt;&lt;/div&gt;&lt;div&gt;&lt;br&gt;&lt;/div&gt;&lt;/div&gt;" style="text;strokeColor=none;fillColor=none;align=left;verticalAlign=middle;spacingLeft=4;spacingRight=4;overflow=hidden;points=[[0,0.5],[1,0.5]];portConstraint=eastwest;rotatable=0;whiteSpace=wrap;html=1;" vertex="1" parent="uKUoslAz756woLKzZDvL-28">
          <mxGeometry y="30" width="170" height="140" as="geometry" />
        </mxCell>
        <mxCell id="uKUoslAz756woLKzZDvL-32" style="edgeStyle=orthogonalEdgeStyle;rounded=0;orthogonalLoop=1;jettySize=auto;html=1;entryX=1;entryY=0.5;entryDx=0;entryDy=0;" edge="1" parent="1" source="uKUoslAz756woLKzZDvL-13" target="uKUoslAz756woLKzZDvL-7">
          <mxGeometry relative="1" as="geometry" />
        </mxCell>
        <mxCell id="uKUoslAz756woLKzZDvL-36" value="Solicita" style="edgeLabel;html=1;align=center;verticalAlign=middle;resizable=0;points=[];fontSize=14;" connectable="0" vertex="1" parent="uKUoslAz756woLKzZDvL-32">
          <mxGeometry x="-0.1086" y="-1" relative="1" as="geometry">
            <mxPoint as="offset" />
          </mxGeometry>
        </mxCell>
        <mxCell id="uKUoslAz756woLKzZDvL-54" value="1..1" style="edgeLabel;html=1;align=center;verticalAlign=middle;resizable=0;points=[];fontSize=14;" connectable="0" vertex="1" parent="uKUoslAz756woLKzZDvL-32">
          <mxGeometry x="-0.7933" y="3" relative="1" as="geometry">
            <mxPoint as="offset" />
          </mxGeometry>
        </mxCell>
        <mxCell id="uKUoslAz756woLKzZDvL-56" value="1..1" style="edgeLabel;html=1;align=center;verticalAlign=middle;resizable=0;points=[];fontSize=14;" connectable="0" vertex="1" parent="uKUoslAz756woLKzZDvL-32">
          <mxGeometry x="0.794" y="3" relative="1" as="geometry">
            <mxPoint as="offset" />
          </mxGeometry>
        </mxCell>
        <mxCell id="uKUoslAz756woLKzZDvL-33" style="edgeStyle=orthogonalEdgeStyle;rounded=0;orthogonalLoop=1;jettySize=auto;html=1;entryX=0;entryY=0.5;entryDx=0;entryDy=0;" edge="1" parent="1" source="uKUoslAz756woLKzZDvL-29" target="uKUoslAz756woLKzZDvL-7">
          <mxGeometry relative="1" as="geometry" />
        </mxCell>
        <mxCell id="uKUoslAz756woLKzZDvL-46" value="1..1" style="edgeLabel;html=1;align=center;verticalAlign=middle;resizable=0;points=[];fontSize=14;" connectable="0" vertex="1" parent="uKUoslAz756woLKzZDvL-33">
          <mxGeometry x="-0.7601" y="-2" relative="1" as="geometry">
            <mxPoint as="offset" />
          </mxGeometry>
        </mxCell>
        <mxCell id="uKUoslAz756woLKzZDvL-47" value="Solicita" style="edgeLabel;html=1;align=center;verticalAlign=middle;resizable=0;points=[];fontSize=14;" connectable="0" vertex="1" parent="uKUoslAz756woLKzZDvL-33">
          <mxGeometry x="0.0359" y="-1" relative="1" as="geometry">
            <mxPoint as="offset" />
          </mxGeometry>
        </mxCell>
        <mxCell id="uKUoslAz756woLKzZDvL-48" value="1..1" style="edgeLabel;html=1;align=center;verticalAlign=middle;resizable=0;points=[];fontSize=14;" connectable="0" vertex="1" parent="uKUoslAz756woLKzZDvL-33">
          <mxGeometry x="0.6889" y="-4" relative="1" as="geometry">
            <mxPoint as="offset" />
          </mxGeometry>
        </mxCell>
        <mxCell id="uKUoslAz756woLKzZDvL-40" style="edgeStyle=orthogonalEdgeStyle;rounded=0;orthogonalLoop=1;jettySize=auto;html=1;entryX=0.493;entryY=1.019;entryDx=0;entryDy=0;entryPerimeter=0;" edge="1" parent="1" source="uKUoslAz756woLKzZDvL-1" target="uKUoslAz756woLKzZDvL-7">
          <mxGeometry relative="1" as="geometry">
            <Array as="points">
              <mxPoint x="520" y="573" />
            </Array>
          </mxGeometry>
        </mxCell>
        <mxCell id="uKUoslAz756woLKzZDvL-42" value="Paga" style="edgeLabel;html=1;align=center;verticalAlign=middle;resizable=0;points=[];fontSize=14;" connectable="0" vertex="1" parent="uKUoslAz756woLKzZDvL-40">
          <mxGeometry x="-0.1149" y="2" relative="1" as="geometry">
            <mxPoint y="-1" as="offset" />
          </mxGeometry>
        </mxCell>
        <mxCell id="uKUoslAz756woLKzZDvL-43" value="1..*" style="edgeLabel;html=1;align=center;verticalAlign=middle;resizable=0;points=[];fontSize=14;" connectable="0" vertex="1" parent="uKUoslAz756woLKzZDvL-40">
          <mxGeometry x="-0.6967" relative="1" as="geometry">
            <mxPoint y="-1" as="offset" />
          </mxGeometry>
        </mxCell>
        <mxCell id="uKUoslAz756woLKzZDvL-44" value="1..1" style="edgeLabel;html=1;align=center;verticalAlign=middle;resizable=0;points=[];fontSize=14;" connectable="0" vertex="1" parent="uKUoslAz756woLKzZDvL-40">
          <mxGeometry x="0.7253" y="-1" relative="1" as="geometry">
            <mxPoint y="-1" as="offset" />
          </mxGeometry>
        </mxCell>
        <mxCell id="uKUoslAz756woLKzZDvL-50" value="&lt;font style=&quot;font-size: 18px;&quot;&gt;Reserva&lt;/font&gt;" style="swimlane;fontStyle=0;childLayout=stackLayout;horizontal=1;startSize=30;horizontalStack=0;resizeParent=1;resizeParentMax=0;resizeLast=0;collapsible=1;marginBottom=0;whiteSpace=wrap;html=1;" vertex="1" parent="1">
          <mxGeometry x="160" y="70" width="160" height="270" as="geometry" />
        </mxCell>
        <mxCell id="uKUoslAz756woLKzZDvL-51" value="&lt;font style=&quot;font-size: 15px;&quot;&gt;quarto : String&lt;/font&gt;&lt;div style=&quot;font-size: 15px;&quot;&gt;&lt;font style=&quot;font-size: 15px;&quot;&gt;&lt;br&gt;&lt;/font&gt;&lt;/div&gt;&lt;div style=&quot;font-size: 15px;&quot;&gt;&lt;font style=&quot;font-size: 15px;&quot;&gt;tamanho : int&lt;/font&gt;&lt;/div&gt;&lt;div style=&quot;font-size: 15px;&quot;&gt;&lt;font style=&quot;font-size: 15px;&quot;&gt;&lt;br&gt;&lt;/font&gt;&lt;/div&gt;&lt;div style=&quot;font-size: 15px;&quot;&gt;&lt;font style=&quot;font-size: 15px;&quot;&gt;numeroCamas : int&lt;br&gt;&lt;/font&gt;&lt;div style=&quot;&quot;&gt;&lt;font style=&quot;font-size: 15px;&quot;&gt;&lt;br&gt;&lt;/font&gt;&lt;/div&gt;&lt;div style=&quot;&quot;&gt;&lt;font style=&quot;font-size: 15px;&quot;&gt;local : String&lt;/font&gt;&lt;/div&gt;&lt;div style=&quot;&quot;&gt;&lt;font style=&quot;font-size: 15px;&quot;&gt;&lt;br&gt;&lt;/font&gt;&lt;/div&gt;&lt;div style=&quot;&quot;&gt;&lt;font style=&quot;font-size: 15px;&quot;&gt;Checkin : Date&lt;/font&gt;&lt;/div&gt;&lt;div style=&quot;&quot;&gt;&lt;font style=&quot;font-size: 15px;&quot;&gt;&lt;br&gt;&lt;/font&gt;&lt;/div&gt;&lt;div style=&quot;&quot;&gt;&lt;font style=&quot;font-size: 15px;&quot;&gt;Checkout : Date&lt;/font&gt;&lt;/div&gt;&lt;div style=&quot;&quot;&gt;&lt;font style=&quot;font-size: 15px;&quot;&gt;&lt;br&gt;&lt;/font&gt;&lt;/div&gt;&lt;div style=&quot;&quot;&gt;&lt;span style=&quot;white-space: pre;&quot;&gt;&lt;font style=&quot;font-size: 15px;&quot;&gt;&#x9;&lt;/font&gt;&lt;/span&gt;&lt;/div&gt;&lt;/div&gt;" style="text;strokeColor=none;fillColor=none;align=left;verticalAlign=middle;spacingLeft=4;spacingRight=4;overflow=hidden;points=[[0,0.5],[1,0.5]];portConstraint=eastwest;rotatable=0;whiteSpace=wrap;html=1;" vertex="1" parent="uKUoslAz756woLKzZDvL-50">
          <mxGeometry y="30" width="160" height="240" as="geometry" />
        </mxCell>
        <mxCell id="uKUoslAz756woLKzZDvL-63" value="&lt;font style=&quot;font-size: 18px;&quot;&gt;Cooporatravel&lt;/font&gt;" style="swimlane;fontStyle=0;childLayout=stackLayout;horizontal=1;startSize=30;horizontalStack=0;resizeParent=1;resizeParentMax=0;resizeLast=0;collapsible=1;marginBottom=0;whiteSpace=wrap;html=1;" vertex="1" parent="1">
          <mxGeometry x="160" y="930" width="150" height="210" as="geometry" />
        </mxCell>
        <mxCell id="uKUoslAz756woLKzZDvL-64" value="&lt;div&gt;&lt;font size=&quot;3&quot;&gt;nome : String&lt;/font&gt;&lt;/div&gt;&lt;div&gt;&lt;font size=&quot;3&quot;&gt;&lt;br&gt;&lt;/font&gt;&lt;/div&gt;&lt;div&gt;&lt;font size=&quot;3&quot;&gt;cnpj : String&lt;/font&gt;&lt;/div&gt;&lt;div&gt;&lt;font size=&quot;3&quot;&gt;&lt;br&gt;&lt;/font&gt;&lt;/div&gt;&lt;div&gt;&lt;font size=&quot;3&quot;&gt;endereço : String&lt;/font&gt;&lt;/div&gt;&lt;div&gt;&lt;font size=&quot;3&quot;&gt;&lt;br&gt;&lt;/font&gt;&lt;/div&gt;&lt;div&gt;&lt;font size=&quot;3&quot;&gt;site : String&lt;/font&gt;&lt;/div&gt;" style="text;strokeColor=none;fillColor=none;align=left;verticalAlign=middle;spacingLeft=4;spacingRight=4;overflow=hidden;points=[[0,0.5],[1,0.5]];portConstraint=eastwest;rotatable=0;whiteSpace=wrap;html=1;" vertex="1" parent="uKUoslAz756woLKzZDvL-63">
          <mxGeometry y="30" width="150" height="180" as="geometry" />
        </mxCell>
        <mxCell id="uKUoslAz756woLKzZDvL-67" value="&lt;font style=&quot;font-size: 18px;&quot;&gt;Intercâmbista&lt;/font&gt;" style="swimlane;fontStyle=0;childLayout=stackLayout;horizontal=1;startSize=30;horizontalStack=0;resizeParent=1;resizeParentMax=0;resizeLast=0;collapsible=1;marginBottom=0;whiteSpace=wrap;html=1;" vertex="1" parent="1">
          <mxGeometry x="800" y="660" width="160" height="420" as="geometry" />
        </mxCell>
        <mxCell id="uKUoslAz756woLKzZDvL-68" value="&lt;div&gt;&lt;br&gt;&lt;/div&gt;&lt;div&gt;&lt;br&gt;&lt;/div&gt;&lt;font size=&quot;3&quot;&gt;nome : String&lt;/font&gt;&lt;br&gt;&lt;div&gt;&lt;font style=&quot;font-size: 12px;&quot;&gt;&lt;br&gt;&lt;/font&gt;&lt;/div&gt;&lt;div&gt;&lt;font size=&quot;3&quot;&gt;email : String&lt;/font&gt;&lt;div&gt;&lt;font size=&quot;3&quot;&gt;&amp;nbsp;&lt;/font&gt;&lt;div&gt;&lt;font size=&quot;3&quot;&gt;senha : String&lt;/font&gt;&lt;/div&gt;&lt;div&gt;&lt;font size=&quot;3&quot;&gt;&lt;br&gt;&lt;/font&gt;&lt;/div&gt;&lt;div&gt;&lt;font size=&quot;3&quot;&gt;cpf : int&lt;/font&gt;&lt;/div&gt;&lt;div&gt;&lt;font size=&quot;3&quot;&gt;&lt;br&gt;&lt;/font&gt;&lt;/div&gt;&lt;div&gt;&lt;font size=&quot;3&quot;&gt;rg: int&lt;/font&gt;&lt;/div&gt;&lt;div&gt;&lt;font size=&quot;3&quot;&gt;&lt;br&gt;&lt;/font&gt;&lt;/div&gt;&lt;div&gt;&lt;font size=&quot;3&quot;&gt;id : int&lt;/font&gt;&lt;/div&gt;&lt;div&gt;&lt;font size=&quot;3&quot;&gt;&lt;br&gt;&lt;/font&gt;&lt;/div&gt;&lt;div&gt;&lt;div&gt;&lt;font size=&quot;3&quot;&gt;cidade: String&lt;/font&gt;&lt;/div&gt;&lt;div&gt;&lt;font size=&quot;3&quot;&gt;&lt;br&gt;&lt;/font&gt;&lt;/div&gt;&lt;div&gt;&lt;font size=&quot;3&quot;&gt;estado: String&lt;/font&gt;&lt;/div&gt;&lt;div&gt;&lt;font size=&quot;3&quot;&gt;&lt;br&gt;&lt;/font&gt;&lt;/div&gt;&lt;div&gt;&lt;font size=&quot;3&quot;&gt;cargo : String&lt;/font&gt;&lt;/div&gt;&lt;/div&gt;&lt;div&gt;&lt;font size=&quot;3&quot;&gt;&lt;br&gt;&lt;/font&gt;&lt;/div&gt;&lt;div&gt;&lt;font size=&quot;3&quot;&gt;&lt;br&gt;&lt;/font&gt;&lt;/div&gt;&lt;div&gt;&lt;font size=&quot;3&quot;&gt;&lt;br&gt;&lt;/font&gt;&lt;/div&gt;&lt;div&gt;&lt;br&gt;&lt;/div&gt;&lt;/div&gt;&lt;/div&gt;" style="text;strokeColor=none;fillColor=none;align=left;verticalAlign=middle;spacingLeft=4;spacingRight=4;overflow=hidden;points=[[0,0.5],[1,0.5]];portConstraint=eastwest;rotatable=0;whiteSpace=wrap;html=1;" vertex="1" parent="uKUoslAz756woLKzZDvL-67">
          <mxGeometry y="30" width="160" height="390" as="geometry" />
        </mxCell>
        <mxCell id="uKUoslAz756woLKzZDvL-72" style="edgeStyle=orthogonalEdgeStyle;rounded=0;orthogonalLoop=1;jettySize=auto;html=1;entryX=1.007;entryY=0.571;entryDx=0;entryDy=0;entryPerimeter=0;" edge="1" parent="1" source="uKUoslAz756woLKzZDvL-68" target="uKUoslAz756woLKzZDvL-2">
          <mxGeometry relative="1" as="geometry" />
        </mxCell>
        <mxCell id="uKUoslAz756woLKzZDvL-73" value="Pertence à" style="edgeLabel;html=1;align=center;verticalAlign=middle;resizable=0;points=[];fontSize=14;" connectable="0" vertex="1" parent="uKUoslAz756woLKzZDvL-72">
          <mxGeometry x="0.0446" y="-2" relative="1" as="geometry">
            <mxPoint as="offset" />
          </mxGeometry>
        </mxCell>
        <mxCell id="uKUoslAz756woLKzZDvL-74" value="1..*" style="edgeLabel;html=1;align=center;verticalAlign=middle;resizable=0;points=[];fontSize=14;" connectable="0" vertex="1" parent="uKUoslAz756woLKzZDvL-72">
          <mxGeometry x="-0.7685" y="2" relative="1" as="geometry">
            <mxPoint as="offset" />
          </mxGeometry>
        </mxCell>
        <mxCell id="uKUoslAz756woLKzZDvL-75" value="1..1" style="edgeLabel;html=1;align=center;verticalAlign=middle;resizable=0;points=[];fontSize=14;" connectable="0" vertex="1" parent="uKUoslAz756woLKzZDvL-72">
          <mxGeometry x="0.7791" y="2" relative="1" as="geometry">
            <mxPoint as="offset" />
          </mxGeometry>
        </mxCell>
        <mxCell id="uKUoslAz756woLKzZDvL-76" value="&lt;font style=&quot;font-size: 18px;&quot;&gt;Voo&lt;/font&gt;" style="swimlane;fontStyle=0;childLayout=stackLayout;horizontal=1;startSize=30;horizontalStack=0;resizeParent=1;resizeParentMax=0;resizeLast=0;collapsible=1;marginBottom=0;whiteSpace=wrap;html=1;" vertex="1" parent="1">
          <mxGeometry x="800" y="80" width="160" height="220" as="geometry" />
        </mxCell>
        <mxCell id="uKUoslAz756woLKzZDvL-77" value="&lt;div&gt;&lt;span style=&quot;font-size: medium; background-color: initial;&quot;&gt;numero : int&lt;/span&gt;&lt;/div&gt;&lt;div&gt;&lt;font size=&quot;3&quot;&gt;&lt;br&gt;&lt;/font&gt;&lt;/div&gt;&lt;div&gt;&lt;font size=&quot;3&quot;&gt;numeroAssento : int&lt;/font&gt;&lt;/div&gt;&lt;div&gt;&lt;font size=&quot;3&quot;&gt;&lt;br&gt;&lt;/font&gt;&lt;/div&gt;&lt;div&gt;&lt;font size=&quot;3&quot;&gt;localização: String&lt;/font&gt;&lt;/div&gt;&lt;div&gt;&lt;font size=&quot;3&quot;&gt;&lt;br&gt;&lt;/font&gt;&lt;/div&gt;&lt;div&gt;&lt;font size=&quot;3&quot;&gt;data : Date&lt;/font&gt;&lt;/div&gt;" style="text;strokeColor=none;fillColor=none;align=left;verticalAlign=middle;spacingLeft=4;spacingRight=4;overflow=hidden;points=[[0,0.5],[1,0.5]];portConstraint=eastwest;rotatable=0;whiteSpace=wrap;html=1;" vertex="1" parent="uKUoslAz756woLKzZDvL-76">
          <mxGeometry y="30" width="160" height="190" as="geometry" />
        </mxCell>
        <mxCell id="uKUoslAz756woLKzZDvL-82" style="edgeStyle=orthogonalEdgeStyle;rounded=0;orthogonalLoop=1;jettySize=auto;html=1;exitX=0.75;exitY=0;exitDx=0;exitDy=0;entryX=0.751;entryY=1.001;entryDx=0;entryDy=0;entryPerimeter=0;" edge="1" parent="1">
          <mxGeometry relative="1" as="geometry">
            <mxPoint x="240" y="509.76" as="sourcePoint" />
            <mxPoint x="240.16999999999985" y="339.9999999999999" as="targetPoint" />
          </mxGeometry>
        </mxCell>
        <mxCell id="uKUoslAz756woLKzZDvL-83" value="1..1" style="edgeLabel;html=1;align=center;verticalAlign=middle;resizable=0;points=[];fontSize=14;" connectable="0" vertex="1" parent="uKUoslAz756woLKzZDvL-82">
          <mxGeometry x="-0.7811" y="2" relative="1" as="geometry">
            <mxPoint as="offset" />
          </mxGeometry>
        </mxCell>
        <mxCell id="uKUoslAz756woLKzZDvL-84" value="Faz" style="edgeLabel;html=1;align=center;verticalAlign=middle;resizable=0;points=[];fontSize=14;" connectable="0" vertex="1" parent="uKUoslAz756woLKzZDvL-82">
          <mxGeometry x="0.2649" y="2" relative="1" as="geometry">
            <mxPoint as="offset" />
          </mxGeometry>
        </mxCell>
        <mxCell id="uKUoslAz756woLKzZDvL-85" value="1..*" style="edgeLabel;html=1;align=center;verticalAlign=middle;resizable=0;points=[];fontSize=14;" connectable="0" vertex="1" parent="uKUoslAz756woLKzZDvL-82">
          <mxGeometry x="0.8365" relative="1" as="geometry">
            <mxPoint as="offset" />
          </mxGeometry>
        </mxCell>
        <mxCell id="uKUoslAz756woLKzZDvL-89" style="edgeStyle=orthogonalEdgeStyle;rounded=0;orthogonalLoop=1;jettySize=auto;html=1;entryX=0.497;entryY=1.01;entryDx=0;entryDy=0;entryPerimeter=0;" edge="1" parent="1" source="uKUoslAz756woLKzZDvL-12" target="uKUoslAz756woLKzZDvL-77">
          <mxGeometry relative="1" as="geometry">
            <Array as="points">
              <mxPoint x="880" y="320" />
              <mxPoint x="880" y="320" />
            </Array>
          </mxGeometry>
        </mxCell>
        <mxCell id="uKUoslAz756woLKzZDvL-90" value="Agenda" style="edgeLabel;html=1;align=center;verticalAlign=middle;resizable=0;points=[];fontSize=14;" connectable="0" vertex="1" parent="uKUoslAz756woLKzZDvL-89">
          <mxGeometry x="-0.1603" y="3" relative="1" as="geometry">
            <mxPoint as="offset" />
          </mxGeometry>
        </mxCell>
        <mxCell id="uKUoslAz756woLKzZDvL-91" value="1..1" style="edgeLabel;html=1;align=center;verticalAlign=middle;resizable=0;points=[];" connectable="0" vertex="1" parent="uKUoslAz756woLKzZDvL-89">
          <mxGeometry x="-0.6214" y="3" relative="1" as="geometry">
            <mxPoint as="offset" />
          </mxGeometry>
        </mxCell>
        <mxCell id="uKUoslAz756woLKzZDvL-92" value="0..*" style="edgeLabel;html=1;align=center;verticalAlign=middle;resizable=0;points=[];" connectable="0" vertex="1" parent="uKUoslAz756woLKzZDvL-89">
          <mxGeometry x="0.712" y="2" relative="1" as="geometry">
            <mxPoint as="offset" />
          </mxGeometry>
        </mxCell>
        <mxCell id="uKUoslAz756woLKzZDvL-94" value="" style="endArrow=classic;html=1;rounded=0;entryX=1.02;entryY=0.662;entryDx=0;entryDy=0;entryPerimeter=0;" edge="1" parent="1" target="uKUoslAz756woLKzZDvL-64">
          <mxGeometry width="50" height="50" relative="1" as="geometry">
            <mxPoint x="524.9" y="1010" as="sourcePoint" />
            <mxPoint x="320" y="1077.36" as="targetPoint" />
            <Array as="points">
              <mxPoint x="524.9" y="1080" />
            </Array>
          </mxGeometry>
        </mxCell>
        <mxCell id="uKUoslAz756woLKzZDvL-95" value="Contrata" style="edgeLabel;html=1;align=center;verticalAlign=middle;resizable=0;points=[];fontSize=14;" connectable="0" vertex="1" parent="uKUoslAz756woLKzZDvL-94">
          <mxGeometry x="0.0535" relative="1" as="geometry">
            <mxPoint as="offset" />
          </mxGeometry>
        </mxCell>
        <mxCell id="uKUoslAz756woLKzZDvL-96" value="1..*" style="edgeLabel;html=1;align=center;verticalAlign=middle;resizable=0;points=[];fontSize=14;" connectable="0" vertex="1" parent="uKUoslAz756woLKzZDvL-94">
          <mxGeometry x="-0.8764" y="2" relative="1" as="geometry">
            <mxPoint as="offset" />
          </mxGeometry>
        </mxCell>
        <mxCell id="uKUoslAz756woLKzZDvL-98" value="1..1" style="edgeLabel;html=1;align=center;verticalAlign=middle;resizable=0;points=[];fontSize=14;" connectable="0" vertex="1" parent="uKUoslAz756woLKzZDvL-94">
          <mxGeometry x="0.7713" y="-1" relative="1" as="geometry">
            <mxPoint as="offset" />
          </mxGeometry>
        </mxCell>
        <mxCell id="uKUoslAz756woLKzZDvL-99" value="" style="endArrow=none;html=1;rounded=0;exitX=0.994;exitY=0.587;exitDx=0;exitDy=0;exitPerimeter=0;" edge="1" parent="1" source="uKUoslAz756woLKzZDvL-68">
          <mxGeometry width="50" height="50" relative="1" as="geometry">
            <mxPoint x="1070" y="670" as="sourcePoint" />
            <mxPoint x="1240" y="40" as="targetPoint" />
            <Array as="points">
              <mxPoint x="1240" y="920" />
            </Array>
          </mxGeometry>
        </mxCell>
        <mxCell id="uKUoslAz756woLKzZDvL-106" value="&lt;font style=&quot;font-size: 14px;&quot;&gt;Usufrui&lt;/font&gt;" style="edgeLabel;html=1;align=center;verticalAlign=middle;resizable=0;points=[];" connectable="0" vertex="1" parent="uKUoslAz756woLKzZDvL-99">
          <mxGeometry x="0.3423" y="2" relative="1" as="geometry">
            <mxPoint y="1" as="offset" />
          </mxGeometry>
        </mxCell>
        <mxCell id="uKUoslAz756woLKzZDvL-107" value="1..2" style="edgeLabel;html=1;align=center;verticalAlign=middle;resizable=0;points=[];fontSize=14;" connectable="0" vertex="1" parent="uKUoslAz756woLKzZDvL-99">
          <mxGeometry x="-0.9415" y="-5" relative="1" as="geometry">
            <mxPoint x="1" as="offset" />
          </mxGeometry>
        </mxCell>
        <mxCell id="uKUoslAz756woLKzZDvL-100" value="" style="endArrow=none;html=1;rounded=0;" edge="1" parent="1">
          <mxGeometry width="50" height="50" relative="1" as="geometry">
            <mxPoint x="240" y="40" as="sourcePoint" />
            <mxPoint x="1240" y="40" as="targetPoint" />
          </mxGeometry>
        </mxCell>
        <mxCell id="uKUoslAz756woLKzZDvL-108" value="1..*" style="edgeLabel;html=1;align=center;verticalAlign=middle;resizable=0;points=[];fontSize=14;" connectable="0" vertex="1" parent="uKUoslAz756woLKzZDvL-100">
          <mxGeometry x="-0.9736" y="4" relative="1" as="geometry">
            <mxPoint as="offset" />
          </mxGeometry>
        </mxCell>
        <mxCell id="uKUoslAz756woLKzZDvL-103" value="" style="endArrow=classic;html=1;rounded=0;entryX=0.5;entryY=0;entryDx=0;entryDy=0;" edge="1" parent="1" target="uKUoslAz756woLKzZDvL-50">
          <mxGeometry width="50" height="50" relative="1" as="geometry">
            <mxPoint x="240" y="40" as="sourcePoint" />
            <mxPoint x="390" y="60" as="targetPoint" />
          </mxGeometry>
        </mxCell>
        <mxCell id="uKUoslAz756woLKzZDvL-110" value="" style="endArrow=classic;html=1;rounded=0;exitX=0.5;exitY=0;exitDx=0;exitDy=0;entryX=0.461;entryY=1.021;entryDx=0;entryDy=0;entryPerimeter=0;" edge="1" parent="1" source="uKUoslAz756woLKzZDvL-63" target="uKUoslAz756woLKzZDvL-29">
          <mxGeometry width="50" height="50" relative="1" as="geometry">
            <mxPoint x="370" y="790" as="sourcePoint" />
            <mxPoint x="420" y="740" as="targetPoint" />
            <Array as="points">
              <mxPoint x="238" y="750" />
            </Array>
          </mxGeometry>
        </mxCell>
        <mxCell id="uKUoslAz756woLKzZDvL-111" value="Solicita" style="edgeLabel;html=1;align=center;verticalAlign=middle;resizable=0;points=[];fontSize=14;" connectable="0" vertex="1" parent="uKUoslAz756woLKzZDvL-110">
          <mxGeometry x="0.0455" relative="1" as="geometry">
            <mxPoint y="1" as="offset" />
          </mxGeometry>
        </mxCell>
        <mxCell id="uKUoslAz756woLKzZDvL-112" value="1..1" style="edgeLabel;html=1;align=center;verticalAlign=middle;resizable=0;points=[];fontSize=14;" connectable="0" vertex="1" parent="uKUoslAz756woLKzZDvL-110">
          <mxGeometry x="-0.8891" relative="1" as="geometry">
            <mxPoint as="offset" />
          </mxGeometry>
        </mxCell>
        <mxCell id="uKUoslAz756woLKzZDvL-113" value="1..1" style="edgeLabel;html=1;align=center;verticalAlign=middle;resizable=0;points=[];fontSize=14;" connectable="0" vertex="1" parent="uKUoslAz756woLKzZDvL-110">
          <mxGeometry x="0.8567" relative="1" as="geometry">
            <mxPoint as="offset" />
          </mxGeometry>
        </mxCell>
        <mxCell id="uKUoslAz756woLKzZDvL-114" value="" style="endArrow=none;html=1;rounded=0;exitX=1.007;exitY=0.892;exitDx=0;exitDy=0;exitPerimeter=0;" edge="1" parent="1" source="uKUoslAz756woLKzZDvL-64">
          <mxGeometry width="50" height="50" relative="1" as="geometry">
            <mxPoint x="620" y="1010" as="sourcePoint" />
            <mxPoint x="680" y="1120" as="targetPoint" />
          </mxGeometry>
        </mxCell>
        <mxCell id="uKUoslAz756woLKzZDvL-117" value="1..1" style="edgeLabel;html=1;align=center;verticalAlign=middle;resizable=0;points=[];fontSize=14;" connectable="0" vertex="1" parent="uKUoslAz756woLKzZDvL-114">
          <mxGeometry x="-0.7747" y="-4" relative="1" as="geometry">
            <mxPoint as="offset" />
          </mxGeometry>
        </mxCell>
        <mxCell id="uKUoslAz756woLKzZDvL-118" value="Solicita" style="edgeLabel;html=1;align=center;verticalAlign=middle;resizable=0;points=[];fontSize=14;" connectable="0" vertex="1" parent="uKUoslAz756woLKzZDvL-114">
          <mxGeometry x="0.453" y="4" relative="1" as="geometry">
            <mxPoint as="offset" />
          </mxGeometry>
        </mxCell>
        <mxCell id="uKUoslAz756woLKzZDvL-115" value="" style="endArrow=none;html=1;rounded=0;" edge="1" parent="1">
          <mxGeometry width="50" height="50" relative="1" as="geometry">
            <mxPoint x="680" y="1120" as="sourcePoint" />
            <mxPoint x="680" y="560" as="targetPoint" />
          </mxGeometry>
        </mxCell>
        <mxCell id="uKUoslAz756woLKzZDvL-116" value="" style="endArrow=classic;html=1;rounded=0;entryX=-0.027;entryY=0.935;entryDx=0;entryDy=0;entryPerimeter=0;" edge="1" parent="1" target="uKUoslAz756woLKzZDvL-13">
          <mxGeometry width="50" height="50" relative="1" as="geometry">
            <mxPoint x="680" y="561" as="sourcePoint" />
            <mxPoint x="700" y="540" as="targetPoint" />
          </mxGeometry>
        </mxCell>
        <mxCell id="uKUoslAz756woLKzZDvL-119" value="1..1" style="edgeLabel;html=1;align=center;verticalAlign=middle;resizable=0;points=[];fontSize=14;" connectable="0" vertex="1" parent="uKUoslAz756woLKzZDvL-116">
          <mxGeometry x="0.6173" y="3" relative="1" as="geometry">
            <mxPoint as="offset" />
          </mxGeometry>
        </mxCell>
        <mxCell id="uKUoslAz756woLKzZDvL-120" value="." style="text;html=1;align=center;verticalAlign=middle;resizable=0;points=[];autosize=1;strokeColor=none;fillColor=none;" vertex="1" parent="1">
          <mxGeometry x="1365" y="388" width="30" height="30" as="geometry" />
        </mxCell>
        <mxCell id="uKUoslAz756woLKzZDvL-121" value="." style="text;html=1;align=center;verticalAlign=middle;resizable=0;points=[];autosize=1;strokeColor=none;fillColor=none;" vertex="1" parent="1">
          <mxGeometry x="540" y="-130" width="30" height="30" as="geometry" />
        </mxCell>
        <mxCell id="uKUoslAz756woLKzZDvL-122" value="." style="text;html=1;align=center;verticalAlign=middle;resizable=0;points=[];autosize=1;strokeColor=none;fillColor=none;" vertex="1" parent="1">
          <mxGeometry x="570" y="1270" width="30" height="30" as="geometry" />
        </mxCell>
        <mxCell id="uKUoslAz756woLKzZDvL-123" value="." style="text;html=1;align=center;verticalAlign=middle;resizable=0;points=[];autosize=1;strokeColor=none;fillColor=none;" vertex="1" parent="1">
          <mxGeometry x="-120" y="520" width="30" height="30" as="geometry" />
        </mxCell>
      </root>
    </mxGraphModel>
  </diagram>
</mxfile>
